<mxfile host="Electron" modified="2024-07-10T12:03:27.819Z" agent="Mozilla/5.0 (Windows NT 10.0; Win64; x64) AppleWebKit/537.36 (KHTML, like Gecko) draw.io/24.6.1 Chrome/124.0.6367.207 Electron/30.0.6 Safari/537.36" etag="sTugLfcpiU_9ljBsF8KL" version="24.6.1" type="device">
  <diagram name="第 1 页" id="FAxyJCZb2OYBetN2Dcmv">
    <mxGraphModel dx="1050" dy="621" grid="1" gridSize="10" guides="1" tooltips="1" connect="1" arrows="1" fold="1" page="1" pageScale="1" pageWidth="827" pageHeight="1169" math="0" shadow="0">
      <root>
        <mxCell id="0" />
        <mxCell id="1" parent="0" />
        <mxCell id="FvB7asnAd7_wnQNN60Q4-8" style="edgeStyle=orthogonalEdgeStyle;rounded=0;orthogonalLoop=1;jettySize=auto;html=1;exitX=1;exitY=0.5;exitDx=0;exitDy=0;entryX=0;entryY=0.5;entryDx=0;entryDy=0;" edge="1" parent="1" source="FvB7asnAd7_wnQNN60Q4-7" target="FvB7asnAd7_wnQNN60Q4-1">
          <mxGeometry relative="1" as="geometry" />
        </mxCell>
        <mxCell id="FvB7asnAd7_wnQNN60Q4-7" value="" style="rounded=0;whiteSpace=wrap;html=1;" vertex="1" parent="1">
          <mxGeometry x="8" y="105" width="120" height="140" as="geometry" />
        </mxCell>
        <mxCell id="FvB7asnAd7_wnQNN60Q4-1" value="木郁" style="ellipse;whiteSpace=wrap;html=1;fontSize=14;fillColor=#f8cecc;strokeColor=#b85450;" vertex="1" parent="1">
          <mxGeometry x="153" y="150" width="80" height="50" as="geometry" />
        </mxCell>
        <mxCell id="FvB7asnAd7_wnQNN60Q4-3" value="土湿" style="ellipse;whiteSpace=wrap;html=1;fontSize=14;fillColor=#fff2cc;strokeColor=#d6b656;" vertex="1" parent="1">
          <mxGeometry x="28" y="115" width="80" height="50" as="geometry" />
        </mxCell>
        <mxCell id="FvB7asnAd7_wnQNN60Q4-4" value="水寒" style="ellipse;whiteSpace=wrap;html=1;fontSize=14;fillColor=#d5e8d4;strokeColor=#82b366;" vertex="1" parent="1">
          <mxGeometry x="28" y="185" width="80" height="50" as="geometry" />
        </mxCell>
        <mxCell id="FvB7asnAd7_wnQNN60Q4-9" value="脾土(风动)" style="ellipse;whiteSpace=wrap;html=1;fontSize=14;fillColor=#ffe6cc;strokeColor=#d79b00;" vertex="1" parent="1">
          <mxGeometry x="253" y="150" width="80" height="50" as="geometry" />
        </mxCell>
        <mxCell id="FvB7asnAd7_wnQNN60Q4-12" value="" style="endArrow=classic;html=1;rounded=0;entryX=0;entryY=0.5;entryDx=0;entryDy=0;exitX=1;exitY=0.5;exitDx=0;exitDy=0;" edge="1" parent="1" source="FvB7asnAd7_wnQNN60Q4-1" target="FvB7asnAd7_wnQNN60Q4-9">
          <mxGeometry width="50" height="50" relative="1" as="geometry">
            <mxPoint x="253" y="185" as="sourcePoint" />
            <mxPoint x="303" y="135" as="targetPoint" />
          </mxGeometry>
        </mxCell>
        <mxCell id="FvB7asnAd7_wnQNN60Q4-15" value="下贼" style="edgeLabel;html=1;align=center;verticalAlign=middle;resizable=0;points=[];" vertex="1" connectable="0" parent="FvB7asnAd7_wnQNN60Q4-12">
          <mxGeometry x="0.0969" y="-1" relative="1" as="geometry">
            <mxPoint as="offset" />
          </mxGeometry>
        </mxCell>
        <mxCell id="FvB7asnAd7_wnQNN60Q4-25" value="肝" style="ellipse;whiteSpace=wrap;html=1;fontSize=14;fillColor=#d5e8d4;strokeColor=#82b366;" vertex="1" parent="1">
          <mxGeometry x="663" y="173" width="80" height="50" as="geometry" />
        </mxCell>
        <mxCell id="FvB7asnAd7_wnQNN60Q4-26" value="主五色" style="rounded=1;whiteSpace=wrap;html=1;fontSize=14;" vertex="1" parent="1">
          <mxGeometry x="559" y="235" width="90" height="40" as="geometry" />
        </mxCell>
        <mxCell id="FvB7asnAd7_wnQNN60Q4-27" value="主筋(爪)" style="rounded=1;whiteSpace=wrap;html=1;fontSize=14;" vertex="1" parent="1">
          <mxGeometry x="559" y="285" width="90" height="40" as="geometry" />
        </mxCell>
        <mxCell id="FvB7asnAd7_wnQNN60Q4-30" value="" style="endArrow=none;html=1;rounded=0;" edge="1" parent="1">
          <mxGeometry width="50" height="50" relative="1" as="geometry">
            <mxPoint x="662" y="327" as="sourcePoint" />
            <mxPoint x="662" y="77" as="targetPoint" />
          </mxGeometry>
        </mxCell>
        <mxCell id="FvB7asnAd7_wnQNN60Q4-72" value="" style="endArrow=none;html=1;rounded=0;" edge="1" parent="1">
          <mxGeometry width="50" height="50" relative="1" as="geometry">
            <mxPoint x="328.5" y="290" as="sourcePoint" />
            <mxPoint x="328.5" y="60" as="targetPoint" />
          </mxGeometry>
        </mxCell>
        <mxCell id="FvB7asnAd7_wnQNN60Q4-73" value="" style="endArrow=classic;html=1;rounded=0;entryX=0;entryY=0;entryDx=0;entryDy=0;entryPerimeter=0;" edge="1" parent="1" target="FvB7asnAd7_wnQNN60Q4-71">
          <mxGeometry width="50" height="50" relative="1" as="geometry">
            <mxPoint x="330" y="73" as="sourcePoint" />
            <mxPoint x="430" y="73" as="targetPoint" />
          </mxGeometry>
        </mxCell>
        <mxCell id="FvB7asnAd7_wnQNN60Q4-75" value="" style="group" vertex="1" connectable="0" parent="1">
          <mxGeometry x="380" y="230" width="150" height="150" as="geometry" />
        </mxCell>
        <mxCell id="FvB7asnAd7_wnQNN60Q4-76" value="血耗色枯" style="swimlane;fontStyle=0;childLayout=stackLayout;horizontal=1;startSize=30;horizontalStack=0;resizeParent=1;resizeParentMax=0;resizeLast=0;collapsible=1;marginBottom=0;whiteSpace=wrap;html=1;fontSize=14;fillColor=#f8cecc;strokeColor=#b85450;" vertex="1" parent="FvB7asnAd7_wnQNN60Q4-75">
          <mxGeometry x="10" width="140" height="150" as="geometry">
            <mxRectangle x="10" width="100" height="30" as="alternateBounds" />
          </mxGeometry>
        </mxCell>
        <mxCell id="FvB7asnAd7_wnQNN60Q4-77" value="&lt;span style=&quot;font-size: 14px; text-align: center;&quot;&gt;甲脆&lt;/span&gt;" style="text;align=left;verticalAlign=middle;spacingLeft=4;spacingRight=4;overflow=hidden;points=[[0,0.5],[1,0.5]];portConstraint=eastwest;rotatable=0;whiteSpace=wrap;html=1;" vertex="1" parent="FvB7asnAd7_wnQNN60Q4-76">
          <mxGeometry y="30" width="140" height="30" as="geometry" />
        </mxCell>
        <mxCell id="FvB7asnAd7_wnQNN60Q4-78" value="&lt;span style=&quot;font-size: 14px; text-align: center;&quot;&gt;抽筋&lt;/span&gt;" style="text;strokeColor=default;fillColor=none;align=left;verticalAlign=middle;spacingLeft=4;spacingRight=4;overflow=hidden;points=[[0,0.5],[1,0.5]];portConstraint=eastwest;rotatable=0;whiteSpace=wrap;html=1;" vertex="1" parent="FvB7asnAd7_wnQNN60Q4-76">
          <mxGeometry y="60" width="140" height="30" as="geometry" />
        </mxCell>
        <mxCell id="FvB7asnAd7_wnQNN60Q4-79" value="&lt;span style=&quot;font-size: 14px; text-align: center;&quot;&gt;眦黑&lt;/span&gt;" style="text;strokeColor=default;fillColor=none;align=left;verticalAlign=middle;spacingLeft=4;spacingRight=4;overflow=hidden;points=[[0,0.5],[1,0.5]];portConstraint=eastwest;rotatable=0;whiteSpace=wrap;html=1;" vertex="1" parent="FvB7asnAd7_wnQNN60Q4-76">
          <mxGeometry y="90" width="140" height="30" as="geometry" />
        </mxCell>
        <mxCell id="FvB7asnAd7_wnQNN60Q4-80" value="&lt;span style=&quot;font-size: 14px; text-align: center;&quot;&gt;唇青&lt;/span&gt;" style="text;strokeColor=default;fillColor=none;align=left;verticalAlign=middle;spacingLeft=4;spacingRight=4;overflow=hidden;points=[[0,0.5],[1,0.5]];portConstraint=eastwest;rotatable=0;whiteSpace=wrap;html=1;" vertex="1" parent="FvB7asnAd7_wnQNN60Q4-76">
          <mxGeometry y="120" width="140" height="30" as="geometry" />
        </mxCell>
        <mxCell id="FvB7asnAd7_wnQNN60Q4-81" value="" style="verticalLabelPosition=bottom;verticalAlign=top;html=1;shape=mxgraph.basic.x;fillColor=#f8cecc;strokeColor=#b85450;" vertex="1" parent="FvB7asnAd7_wnQNN60Q4-75">
          <mxGeometry width="10" height="13.899999999999999" as="geometry" />
        </mxCell>
        <mxCell id="FvB7asnAd7_wnQNN60Q4-83" value="" style="group" vertex="1" connectable="0" parent="1">
          <mxGeometry x="382" y="73" width="150" height="150" as="geometry" />
        </mxCell>
        <mxCell id="FvB7asnAd7_wnQNN60Q4-66" value="生疏泄" style="swimlane;fontStyle=0;childLayout=stackLayout;horizontal=1;startSize=30;horizontalStack=0;resizeParent=1;resizeParentMax=0;resizeLast=0;collapsible=1;marginBottom=0;whiteSpace=wrap;html=1;fontSize=14;fillColor=#f8cecc;strokeColor=#b85450;" vertex="1" parent="FvB7asnAd7_wnQNN60Q4-83">
          <mxGeometry x="10" width="140" height="150" as="geometry">
            <mxRectangle x="10" width="100" height="30" as="alternateBounds" />
          </mxGeometry>
        </mxCell>
        <mxCell id="FvB7asnAd7_wnQNN60Q4-67" value="&lt;span style=&quot;font-size: 14px; text-align: center;&quot;&gt;腹痛&lt;/span&gt;" style="text;align=left;verticalAlign=middle;spacingLeft=4;spacingRight=4;overflow=hidden;points=[[0,0.5],[1,0.5]];portConstraint=eastwest;rotatable=0;whiteSpace=wrap;html=1;" vertex="1" parent="FvB7asnAd7_wnQNN60Q4-66">
          <mxGeometry y="30" width="140" height="30" as="geometry" />
        </mxCell>
        <mxCell id="FvB7asnAd7_wnQNN60Q4-68" value="&lt;span style=&quot;font-size: 14px; text-align: center;&quot;&gt;下痢&lt;/span&gt;" style="text;strokeColor=default;fillColor=none;align=left;verticalAlign=middle;spacingLeft=4;spacingRight=4;overflow=hidden;points=[[0,0.5],[1,0.5]];portConstraint=eastwest;rotatable=0;whiteSpace=wrap;html=1;" vertex="1" parent="FvB7asnAd7_wnQNN60Q4-66">
          <mxGeometry y="60" width="140" height="30" as="geometry" />
        </mxCell>
        <mxCell id="FvB7asnAd7_wnQNN60Q4-69" value="&lt;span style=&quot;font-size: 14px; text-align: center;&quot;&gt;亡汗&lt;/span&gt;" style="text;strokeColor=default;fillColor=none;align=left;verticalAlign=middle;spacingLeft=4;spacingRight=4;overflow=hidden;points=[[0,0.5],[1,0.5]];portConstraint=eastwest;rotatable=0;whiteSpace=wrap;html=1;" vertex="1" parent="FvB7asnAd7_wnQNN60Q4-66">
          <mxGeometry y="90" width="140" height="30" as="geometry" />
        </mxCell>
        <mxCell id="FvB7asnAd7_wnQNN60Q4-70" value="&lt;span style=&quot;font-size: 14px; text-align: center;&quot;&gt;失血&lt;/span&gt;" style="text;strokeColor=default;fillColor=none;align=left;verticalAlign=middle;spacingLeft=4;spacingRight=4;overflow=hidden;points=[[0,0.5],[1,0.5]];portConstraint=eastwest;rotatable=0;whiteSpace=wrap;html=1;" vertex="1" parent="FvB7asnAd7_wnQNN60Q4-66">
          <mxGeometry y="120" width="140" height="30" as="geometry" />
        </mxCell>
        <mxCell id="FvB7asnAd7_wnQNN60Q4-71" value="" style="verticalLabelPosition=bottom;verticalAlign=top;html=1;shape=mxgraph.basic.x;fillColor=#f8cecc;strokeColor=#b85450;" vertex="1" parent="FvB7asnAd7_wnQNN60Q4-83">
          <mxGeometry width="10" height="13.899999999999999" as="geometry" />
        </mxCell>
        <mxCell id="FvB7asnAd7_wnQNN60Q4-84" value="" style="endArrow=classic;html=1;rounded=0;entryX=0;entryY=0;entryDx=0;entryDy=0;entryPerimeter=0;" edge="1" parent="1" target="FvB7asnAd7_wnQNN60Q4-81">
          <mxGeometry width="50" height="50" relative="1" as="geometry">
            <mxPoint x="330" y="230" as="sourcePoint" />
            <mxPoint x="392" y="83" as="targetPoint" />
          </mxGeometry>
        </mxCell>
        <mxCell id="FvB7asnAd7_wnQNN60Q4-86" value="主疏泄" style="rounded=1;whiteSpace=wrap;html=1;fontSize=14;" vertex="1" parent="1">
          <mxGeometry x="559" y="133" width="90" height="40" as="geometry" />
        </mxCell>
        <mxCell id="FvB7asnAd7_wnQNN60Q4-93" style="edgeStyle=orthogonalEdgeStyle;rounded=0;orthogonalLoop=1;jettySize=auto;html=1;exitX=1;exitY=0.5;exitDx=0;exitDy=0;" edge="1" parent="1" source="FvB7asnAd7_wnQNN60Q4-87" target="FvB7asnAd7_wnQNN60Q4-92">
          <mxGeometry relative="1" as="geometry" />
        </mxCell>
        <mxCell id="FvB7asnAd7_wnQNN60Q4-87" value="木" style="ellipse;whiteSpace=wrap;html=1;fontSize=14;fillColor=#d5e8d4;strokeColor=#82b366;" vertex="1" parent="1">
          <mxGeometry x="9" y="515" width="80" height="50" as="geometry" />
        </mxCell>
        <mxCell id="FvB7asnAd7_wnQNN60Q4-88" value="火(阳)" style="ellipse;whiteSpace=wrap;html=1;fontSize=14;fillColor=#f8cecc;strokeColor=#b85450;" vertex="1" parent="1">
          <mxGeometry x="9" y="425" width="80" height="50" as="geometry" />
        </mxCell>
        <mxCell id="FvB7asnAd7_wnQNN60Q4-89" value="水(阴)" style="ellipse;whiteSpace=wrap;html=1;fontSize=14;fillColor=#dae8fc;strokeColor=#6c8ebf;" vertex="1" parent="1">
          <mxGeometry x="9" y="605" width="80" height="50" as="geometry" />
        </mxCell>
        <mxCell id="FvB7asnAd7_wnQNN60Q4-90" value="" style="endArrow=classic;html=1;rounded=0;entryX=0.5;entryY=1;entryDx=0;entryDy=0;exitX=0.5;exitY=0;exitDx=0;exitDy=0;" edge="1" parent="1" source="FvB7asnAd7_wnQNN60Q4-89" target="FvB7asnAd7_wnQNN60Q4-87">
          <mxGeometry width="50" height="50" relative="1" as="geometry">
            <mxPoint x="19" y="635" as="sourcePoint" />
            <mxPoint x="69" y="585" as="targetPoint" />
          </mxGeometry>
        </mxCell>
        <mxCell id="FvB7asnAd7_wnQNN60Q4-91" value="" style="endArrow=classic;html=1;rounded=0;entryX=0.5;entryY=1;entryDx=0;entryDy=0;exitX=0.5;exitY=0;exitDx=0;exitDy=0;" edge="1" parent="1" source="FvB7asnAd7_wnQNN60Q4-87" target="FvB7asnAd7_wnQNN60Q4-88">
          <mxGeometry width="50" height="50" relative="1" as="geometry">
            <mxPoint x="19" y="522" as="sourcePoint" />
            <mxPoint x="21" y="465" as="targetPoint" />
          </mxGeometry>
        </mxCell>
        <mxCell id="FvB7asnAd7_wnQNN60Q4-101" style="edgeStyle=orthogonalEdgeStyle;rounded=0;orthogonalLoop=1;jettySize=auto;html=1;exitX=1;exitY=0;exitDx=0;exitDy=0;entryX=0.33;entryY=0.5;entryDx=0;entryDy=0;entryPerimeter=0;" edge="1" parent="1" source="FvB7asnAd7_wnQNN60Q4-92" target="FvB7asnAd7_wnQNN60Q4-100">
          <mxGeometry relative="1" as="geometry">
            <mxPoint x="270" y="530" as="targetPoint" />
            <Array as="points">
              <mxPoint x="208" y="520" />
              <mxPoint x="240" y="520" />
              <mxPoint x="240" y="457" />
            </Array>
          </mxGeometry>
        </mxCell>
        <mxCell id="FvB7asnAd7_wnQNN60Q4-110" style="edgeStyle=orthogonalEdgeStyle;rounded=0;orthogonalLoop=1;jettySize=auto;html=1;exitX=1;exitY=1;exitDx=0;exitDy=0;entryX=0;entryY=0.25;entryDx=0;entryDy=0;" edge="1" parent="1" source="FvB7asnAd7_wnQNN60Q4-92" target="FvB7asnAd7_wnQNN60Q4-106">
          <mxGeometry relative="1" as="geometry" />
        </mxCell>
        <mxCell id="FvB7asnAd7_wnQNN60Q4-92" value="木郁" style="ellipse;whiteSpace=wrap;html=1;fontSize=14;fillColor=#f8cecc;strokeColor=#b85450;" vertex="1" parent="1">
          <mxGeometry x="140" y="515" width="80" height="50" as="geometry" />
        </mxCell>
        <mxCell id="FvB7asnAd7_wnQNN60Q4-102" value="" style="group" vertex="1" connectable="0" parent="1">
          <mxGeometry x="270" y="450" width="150" height="90" as="geometry" />
        </mxCell>
        <mxCell id="FvB7asnAd7_wnQNN60Q4-95" value="水火不交" style="swimlane;fontStyle=0;childLayout=stackLayout;horizontal=1;startSize=30;horizontalStack=0;resizeParent=1;resizeParentMax=0;resizeLast=0;collapsible=1;marginBottom=0;whiteSpace=wrap;html=1;fontSize=14;fillColor=#f8cecc;strokeColor=#b85450;" vertex="1" parent="FvB7asnAd7_wnQNN60Q4-102">
          <mxGeometry x="10" width="140" height="90" as="geometry">
            <mxRectangle x="10" width="100" height="30" as="alternateBounds" />
          </mxGeometry>
        </mxCell>
        <mxCell id="FvB7asnAd7_wnQNN60Q4-96" value="&lt;div style=&quot;text-align: center;&quot;&gt;&lt;span style=&quot;background-color: initial; font-size: 14px;&quot;&gt;外燥内湿&lt;/span&gt;&lt;/div&gt;" style="text;align=left;verticalAlign=middle;spacingLeft=4;spacingRight=4;overflow=hidden;points=[[0,0.5],[1,0.5]];portConstraint=eastwest;rotatable=0;whiteSpace=wrap;html=1;" vertex="1" parent="FvB7asnAd7_wnQNN60Q4-95">
          <mxGeometry y="30" width="140" height="30" as="geometry" />
        </mxCell>
        <mxCell id="FvB7asnAd7_wnQNN60Q4-97" value="&lt;div style=&quot;text-align: center;&quot;&gt;&lt;span style=&quot;background-color: initial; font-size: 14px;&quot;&gt;下寒上热&lt;/span&gt;&lt;/div&gt;" style="text;strokeColor=default;fillColor=none;align=left;verticalAlign=middle;spacingLeft=4;spacingRight=4;overflow=hidden;points=[[0,0.5],[1,0.5]];portConstraint=eastwest;rotatable=0;whiteSpace=wrap;html=1;" vertex="1" parent="FvB7asnAd7_wnQNN60Q4-95">
          <mxGeometry y="60" width="140" height="30" as="geometry" />
        </mxCell>
        <mxCell id="FvB7asnAd7_wnQNN60Q4-100" value="" style="verticalLabelPosition=bottom;verticalAlign=top;html=1;shape=mxgraph.basic.x;fillColor=#f8cecc;strokeColor=#b85450;" vertex="1" parent="FvB7asnAd7_wnQNN60Q4-102">
          <mxGeometry width="10" height="13.899999999999999" as="geometry" />
        </mxCell>
        <mxCell id="FvB7asnAd7_wnQNN60Q4-106" value="治则" style="swimlane;fontStyle=0;childLayout=stackLayout;horizontal=1;startSize=30;horizontalStack=0;resizeParent=1;resizeParentMax=0;resizeLast=0;collapsible=1;marginBottom=0;whiteSpace=wrap;html=1;fontSize=14;fillColor=#d5e8d4;strokeColor=#82b366;" vertex="1" parent="1">
          <mxGeometry x="280" y="570" width="140" height="120" as="geometry">
            <mxRectangle x="10" width="100" height="30" as="alternateBounds" />
          </mxGeometry>
        </mxCell>
        <mxCell id="FvB7asnAd7_wnQNN60Q4-107" value="&lt;div style=&quot;text-align: center;&quot;&gt;&lt;span style=&quot;font-size: 14px;&quot;&gt;升其肝气&lt;/span&gt;&lt;/div&gt;" style="text;align=left;verticalAlign=middle;spacingLeft=4;spacingRight=4;overflow=hidden;points=[[0,0.5],[1,0.5]];portConstraint=eastwest;rotatable=0;whiteSpace=wrap;html=1;" vertex="1" parent="FvB7asnAd7_wnQNN60Q4-106">
          <mxGeometry y="30" width="140" height="30" as="geometry" />
        </mxCell>
        <mxCell id="FvB7asnAd7_wnQNN60Q4-111" value="&lt;div style=&quot;text-align: center;&quot;&gt;&lt;span style=&quot;font-size: 14px;&quot;&gt;去其土湿&lt;/span&gt;&lt;/div&gt;" style="text;strokeColor=default;fillColor=none;align=left;verticalAlign=middle;spacingLeft=4;spacingRight=4;overflow=hidden;points=[[0,0.5],[1,0.5]];portConstraint=eastwest;rotatable=0;whiteSpace=wrap;html=1;" vertex="1" parent="FvB7asnAd7_wnQNN60Q4-106">
          <mxGeometry y="60" width="140" height="30" as="geometry" />
        </mxCell>
        <mxCell id="FvB7asnAd7_wnQNN60Q4-108" value="&lt;div style=&quot;text-align: center;&quot;&gt;&lt;span style=&quot;font-size: 14px;&quot;&gt;暖肾水&lt;/span&gt;&lt;/div&gt;" style="text;strokeColor=default;fillColor=none;align=left;verticalAlign=middle;spacingLeft=4;spacingRight=4;overflow=hidden;points=[[0,0.5],[1,0.5]];portConstraint=eastwest;rotatable=0;whiteSpace=wrap;html=1;" vertex="1" parent="FvB7asnAd7_wnQNN60Q4-106">
          <mxGeometry y="90" width="140" height="30" as="geometry" />
        </mxCell>
      </root>
    </mxGraphModel>
  </diagram>
</mxfile>
